<svg id="Layer_1" enable-background="new 0 0 512 512" height="512" viewBox="0 0 512 512" width="512" xmlns="http://www.w3.org/2000/svg"><g><path d="m470.167 172.667-130.793-130.792c-45.833-45.833-120.832-45.833-166.665 0l-130.792 130.792c-45.833 45.833-45.833 120.832 0 166.665l130.793 130.793c45.833 45.833 120.832 45.833 166.665 0l130.793-130.793c45.832-45.832 45.832-120.832-.001-166.665z" fill="#fe7d43"/><path d="m256.042 474.5c-23.558 0-45.619-9.087-62.12-25.588l-130.792-130.793c-16.5-16.5-25.588-38.562-25.588-62.119s9.087-45.619 25.588-62.12l130.793-130.792c16.5-16.5 38.562-25.588 62.119-25.588s45.619 9.087 62.12 25.588l130.792 130.793c16.5 16.5 25.588 38.562 25.588 62.119s-9.087 45.619-25.588 62.12l-130.793 130.792c-16.5 16.501-38.561 25.588-62.119 25.588z" fill="#ffd15b"/><path d="m357.042 166.461h-202c-2.209 0-4 1.791-4 4v32c0 2.209 1.791 4 4 4h80c.552 0 1 .448 1 1v191.051c0 2.209 1.791 4 4 4h32c2.209 0 4-1.791 4-4v-191.051c0-.552.448-1 1-1h80c2.209 0 4-1.791 4-4v-32c0-2.209-1.791-4-4-4z" fill="#7a6d79"/><g><path d="m283.537 398.513v-184.552h73.488c6.34 0 11.498-5.159 11.498-11.5v-32c0-6.341-5.158-11.5-11.498-11.5h-25.221c-4.142 0-7.499 3.358-7.499 7.5s3.357 7.5 7.499 7.5h21.722v25h-76.487c-4.686 0-8.499 3.813-8.499 8.5v187.551h-24.996v-187.551c0-4.687-3.812-8.5-8.499-8.5h-76.487v-25h137.345c4.142 0 7.499-3.358 7.499-7.5s-3.357-7.5-7.499-7.5h-140.845c-6.34 0-11.498 5.159-11.498 11.5v32c0 6.341 5.158 11.5 11.498 11.5h73.488v184.551c0 6.341 5.158 11.5 11.498 11.5h31.995c6.34.001 11.498-5.158 11.498-11.499z"/><path d="m475.435 167.364-130.772-130.793c-23.579-23.583-55.052-36.571-88.621-36.571s-65.042 12.988-88.621 36.571l-29.664 29.669c-2.929 2.929-2.929 7.678 0 10.606 2.928 2.929 7.676 2.929 10.605 0l29.664-29.668c20.746-20.75 48.453-32.178 78.016-32.178s57.27 11.428 78.016 32.178l130.772 130.793c20.748 20.75 32.173 48.462 32.173 78.029s-11.426 57.279-32.173 78.029l-130.773 130.793c-20.745 20.75-48.453 32.178-78.015 32.178s-57.269-11.428-78.017-32.178l-130.771-130.793c-43.018-43.025-43.018-113.033 0-156.059l76.383-76.395c2.929-2.929 2.929-7.678 0-10.606-2.928-2.929-7.676-2.929-10.605 0l-76.383 76.395c-48.866 48.874-48.866 128.397 0 177.271l130.772 130.793c23.579 23.584 55.052 36.572 88.621 36.572s65.042-12.988 88.621-36.571l130.772-130.793c23.579-23.584 36.565-55.062 36.565-88.636s-12.986-65.052-36.565-88.636z"/><path d="m361.778 415.885 92.448-92.462c17.914-17.918 27.78-41.863 27.78-67.423 0-25.561-9.866-49.505-27.78-67.422l-130.772-130.793c-17.914-17.918-41.855-27.785-67.412-27.785s-49.497 9.867-67.411 27.785l-130.772 130.792c-17.915 17.917-27.78 41.862-27.78 67.423s9.866 49.505 27.78 67.422l130.771 130.793c17.915 17.918 41.856 27.785 67.412 27.785 25.557 0 49.498-9.867 67.412-27.785l13.6-13.603c2.928-2.929 2.928-7.678 0-10.606-2.929-2.929-7.676-2.929-10.606 0l-13.6 13.603c-15.08 15.084-35.255 23.391-56.806 23.391s-41.725-8.307-56.807-23.391l-130.771-130.793c-15.082-15.084-23.388-35.262-23.388-56.816s8.306-41.732 23.387-56.816l130.772-130.793c15.082-15.084 35.256-23.391 56.807-23.391s41.726 8.307 56.806 23.391l130.772 130.793c15.082 15.084 23.388 35.262 23.388 56.816s-8.306 41.731-23.388 56.816l-92.448 92.462c-2.928 2.929-2.928 7.678 0 10.606 2.929 2.93 7.676 2.931 10.606.001z"/><path d="m263.541 68v-4c0-4.142-3.357-7.5-7.499-7.5-4.141 0-7.499 3.358-7.499 7.5v4c0 4.142 3.357 7.5 7.499 7.5s7.499-3.358 7.499-7.5z"/><path d="m248.543 444v4c0 4.142 3.357 7.5 7.499 7.5s7.499-3.358 7.499-7.5v-4c0-4.142-3.357-7.5-7.499-7.5-4.141 0-7.499 3.358-7.499 7.5z"/><path d="m448.01 263.5c4.142 0 7.499-3.358 7.499-7.5s-3.357-7.5-7.499-7.5h-3.999c-4.142 0-7.499 3.358-7.499 7.5s3.357 7.5 7.499 7.5z"/><path d="m64.073 248.5c-4.141 0-7.499 3.358-7.499 7.5s3.357 7.5 7.499 7.5h3.999c4.141 0 7.499-3.358 7.499-7.5s-3.357-7.5-7.499-7.5z"/></g></g></svg>